:SAMPLES-PER-SECOND 25
:FULLY-SPECIFIED
:DEGREES
187
root  -4.53068 67.0548 37.7801 -178.636 2.78262 -179.581
RightUpLeg  -10.4929 -3.19243 2.66953
RightLeg  15.1032 1.81894 0.692418
RightFoot  -4.09997 0.154498 -2.89092
RightToes  2.84633e-005 7.89722e-005 -0.000426369
Spine  1.09097 -2.07709 1.91491
Spine1  2.1019 -4.17261 4.80431
HEad  29.5035 -3.68793 -6.56786
LeftShoulder1  -3.88251e-019 0 -3.92111e-022
LeftArm  -32.1803 -5.10849 -84.8658
LeftForeArm  35.208 2.11306 -0.716273
LeftHand  -0.739036 -4.63619 8.83902
RightShoulder  7.45443e-017 -2.42657e-020 1.96277e-018
RightArm  -30.9014 -14.9797 72.531
RightForeArm  30.1742 -0.556574 1.25153
RightHand  -0.947964 8.43406 -8.30831
LeftUpLeg  -4.0458 -0.300139 -2.92763
LeftLeg  7.51828 21.4913 3.44109
LeftFoot  -3.08399 -0.184805 2.81777
LeftToes  3.91355e-005 3.11907e-005 -4.10385e-006
188
root  -4.45541 67.1335 37.5125 -178.234 4.08292 -179.603
RightUpLeg  -9.15566 0.624386 2.83432
RightLeg  12.0844 -0.985315 -0.144256
RightFoot  -3.5984 0.169097 -2.86125
RightToes  2.84633e-005 7.89722e-005 -0.000426369
Spine  0.869868 -1.64469 1.9422
Spine1  1.67984 -3.30213 4.6371
HEad  29.5365 -3.53782 -6.81585
LeftShoulder1  -3.88251e-019 0 -3.92111e-022
LeftArm  -32.7675 -3.96748 -84.8884
LeftForeArm  35.2559 2.14425 -0.960168
LeftHand  -0.761928 -4.51875 9.20399
RightShoulder  7.45443e-017 -2.42657e-020 1.96277e-018
RightArm  -30.818 -15.7704 72.8448
RightForeArm  29.3215 0.896432 2.3477
RightHand  -1.01065 8.45886 -8.81542
LeftUpLeg  -3.49331 -0.380112 -2.88877
LeftLeg  6.61657 22.8882 3.31426
LeftFoot  -3.03118 -0.163289 2.50109
LeftToes  3.91355e-005 3.11907e-005 -4.10385e-006
189
root  -4.36876 67.1609 37.2463 -178.305 5.62074 -179.555
RightUpLeg  -8.516 2.15528 3.17484
RightLeg  11.766 -0.74558 -0.561198
RightFoot  -3.37791 0.153851 -2.53635
RightToes  2.84633e-005 7.89722e-005 -0.000426369
Spine  0.922518 -1.22537 1.89133
Spine1  1.80439 -2.47289 4.37427
HEad  29.2422 -2.95232 -6.96291
LeftShoulder1  -3.88251e-019 0 -3.92111e-022
LeftArm  -33.2954 -2.13675 -84.887
LeftForeArm  34.4426 2.03904 -1.39451
LeftHand  -0.755168 -4.44894 9.18566
RightShoulder  7.45443e-017 -2.42657e-020 1.96277e-018
RightArm  -30.3072 -15.3036 73.1801
RightForeArm  29.9913 1.56861 3.23625
RightHand  -1.12586 8.42752 -9.7942
LeftUpLeg  -3.42849 -0.181018 -2.61385
LeftLeg  7.98208 24.2211 3.71573
LeftFoot  -3.96369 -0.108298 2.05027
LeftToes  3.91355e-005 3.11907e-005 -4.10385e-006
190
root  -4.26981 67.1365 37.015 -178.49 6.58897 -179.23
RightUpLeg  -7.82707 2.28719 3.69682
RightLeg  11.5875 0.157358 -0.382845
RightFoot  -3.36952 0.193692 -3.10329
RightToes  2.84633e-005 7.89722e-005 -0.000426369
Spine  1.05799 -0.966895 2.04353
Spine1  2.08294 -1.96854 4.29095
HEad  28.6512 -2.34937 -6.86289
LeftShoulder1  -3.88251e-019 0 -3.92111e-022
LeftArm  -33.558 -0.192548 -85.0504
LeftForeArm  33.9103 1.91006 -1.5572
LeftHand  -0.726365 -4.4627 8.8361
RightShoulder  7.45443e-017 -2.42657e-020 1.96277e-018
RightArm  -29.2907 -14.4307 73.3993
RightForeArm  30.9749 1.94628 3.99421
RightHand  -1.13866 8.46216 -9.8777
LeftUpLeg  -4.22252 1.59946 -1.76193
LeftLeg  11.3079 23.3293 4.25519
LeftFoot  -6.07823 -0.0319522 1.47877
LeftToes  3.91355e-005 3.11907e-005 -4.10385e-006
191
root  -4.1427 67.0153 36.8043 -178.665 6.65938 -178.705
RightUpLeg  -7.46485 2.66964 4.54137
RightLeg  12.0555 -0.252275 -0.579764
RightFoot  -3.96394 0.210477 -3.67785
RightToes  2.84633e-005 7.89722e-005 -0.000426369
Spine  1.18465 -0.807705 2.43802
Spine1  2.33831 -1.65022 4.37996
HEad  28.031 -2.33045 -6.54281
LeftShoulder1  -3.88251e-019 0 -3.92111e-022
LeftArm  -33.7853 1.437 -85.3357
LeftForeArm  34.3384 2.25217 -1.4372
LeftHand  -0.684077 -4.32834 8.447
RightShoulder  7.45443e-017 -2.42657e-020 1.96277e-018
RightArm  -28.473 -14.3054 73.2643
RightForeArm  30.8522 3.27586 5.29654
RightHand  -1.09915 8.67254 -9.41595
LeftUpLeg  -6.40543 6.85765 -1.05163
LeftLeg  16.9501 17.6049 5.79236
LeftFoot  -8.21702 0.0128895 1.33962
LeftToes  3.91355e-005 3.11907e-005 -4.10385e-006
192
root  -4.02386 66.8401 36.5754 -179.001 6.19302 -178.11
RightUpLeg  -7.38181 3.32763 5.44324
RightLeg  13.7413 -1.28996 -0.949791
RightFoot  -5.05169 0.174035 -3.78533
RightToes  2.84633e-005 7.89722e-005 -0.000426369
Spine  1.43185 -0.664 2.89331
Spine1  2.83466 -1.3492 4.5667
HEad  27.2153 -2.87796 -6.3148
LeftShoulder1  -3.88251e-019 0 -3.92111e-022
LeftArm  -34.3328 2.54157 -85.596
LeftForeArm  35.2428 2.16981 -1.21321
LeftHand  -0.65197 -4.08837 8.25486
RightShoulder  7.45443e-017 -2.42657e-020 1.96277e-018
RightArm  -28.0445 -14.5536 72.7971
RightForeArm  30.1645 5.34665 7.07059
RightHand  -1.11822 8.98287 -9.37793
LeftUpLeg  -9.58499 7.61155 -0.128533
LeftLeg  24.8097 14.3417 7.48582
LeftFoot  -8.74306 0.00657811 2.00904
LeftToes  3.91355e-005 3.11907e-005 -4.10385e-006
193
root  -3.96348 66.694 36.312 -179.299 5.82391 -177.551
RightUpLeg  -7.14344 3.35788 6.10594
RightLeg  15.0955 -1.66419 -0.994754
RightFoot  -6.1718 0.124517 -3.67859
RightToes  2.84633e-005 7.89722e-005 -0.000426369
Spine  1.72754 -0.416252 3.30916
Spine1  3.43638 -0.837203 4.74622
HEad  26.0749 -3.716 -6.27159
LeftShoulder1  -3.88251e-019 0 -3.92111e-022
LeftArm  -35.1098 3.2422 -85.8391
LeftForeArm  36.0414 2.05997 -0.504842
LeftHand  -0.653682 -3.99616 8.35097
RightShoulder  7.45443e-017 -2.42657e-020 1.96277e-018
RightArm  -27.5235 -14.3658 72.2959
RightForeArm  29.9374 6.77674 8.27959
RightHand  -1.22547 9.21765 -10.0807
LeftUpLeg  -12.9167 5.95657 0.89522
LeftLeg  31.7414 11.6113 7.97957
LeftFoot  -8.37016 -0.0189634 2.68454
LeftToes  3.91355e-005 3.11907e-005 -4.10385e-006
194
root  -3.95168 66.6432 36.0021 -179.483 5.94113 -177.522
RightUpLeg  -6.58065 3.35883 6.18294
RightLeg  15.3953 -1.76687 -1.09605
RightFoot  -7.00177 0.0800161 -3.35664
RightToes  2.84633e-005 7.89722e-005 -0.000426369
Spine  1.9041 0.0543157 3.35526
Spine1  3.8177 0.0981765 4.51705
HEad  25.0817 -4.6341 -6.16646
LeftShoulder1  -3.88251e-019 0 -3.92111e-022
LeftArm  -35.7586 4.15611 -85.9281
LeftForeArm  36.3953 1.93371 0.563775
LeftHand  -0.663429 -3.94966 8.51085
RightShoulder  7.45443e-017 -2.42657e-020 1.96277e-018
RightArm  -27.171 -13.8176 72.0101
RightForeArm  30.2998 6.71457 8.29263
RightHand  -1.41094 9.49645 -11.3311
LeftUpLeg  -15.4948 4.30651 1.36792
LeftLeg  34.5077 9.09696 7.02706
LeftFoot  -8.75816 -0.00164172 2.38679
LeftToes  3.91355e-005 3.11907e-005 -4.10385e-006
195
root  -3.96377 66.6964 35.6324 -179.785 6.33424 -178.222
RightUpLeg  -5.57415 3.7699 5.56553
RightLeg  15.126 -1.86538 -1.39222
RightFoot  -7.45493 0.0545815 -3.09292
RightToes  2.84633e-005 7.89722e-005 -0.000426369
Spine  2.00973 0.63526 2.89214
Spine1  4.06388 1.22964 3.75707
HEad  24.4735 -5.35699 -5.91769
LeftShoulder1  -3.88251e-019 0 -3.92111e-022
LeftArm  -36.3327 5.67711 -85.5964
LeftForeArm  36.1879 1.86741 1.39915
LeftHand  -0.647375 -3.78055 8.45453
RightShoulder  7.45443e-017 -2.42657e-020 1.96277e-018
RightArm  -27.2719 -13.3639 72.0176
RightForeArm  30.7105 5.7302 7.57925
RightHand  -1.5218 9.76603 -11.9832
LeftUpLeg  -16.8525 2.75102 1.15214
LeftLeg  32.6703 8.41922 6.12732
LeftFoot  -9.1657 0.0214319 1.78243
LeftToes  3.91355e-005 3.11907e-005 -4.10385e-006
196
root  -4.00771 66.7707 35.1945 -179.982 6.48389 -178.963
RightUpLeg  -4.39449 3.88676 4.78016
RightLeg  14.5283 -1.74393 -1.5441
RightFoot  -7.86721 0.0408502 -3.0999
RightToes  2.84633e-005 7.89722e-005 -0.000426369
Spine  2.06686 1.09276 2.28646
Spine1  4.20054 2.10791 3.02391
HEad  23.8642 -5.81336 -5.70847
LeftShoulder1  -3.88251e-019 0 -3.92111e-022
LeftArm  -37.0824 7.56537 -84.8323
LeftForeArm  35.6244 1.84865 1.89498
LeftHand  -0.622806 -3.67539 8.23238
RightShoulder  7.45443e-017 -2.42657e-020 1.96277e-018
RightArm  -27.4507 -13.2344 72.2102
RightForeArm  30.9393 4.95845 6.98919
RightHand  -1.41175 9.7183 -11.1832
LeftUpLeg  -17.4948 0.98309 0.964578
LeftLeg  27.9734 8.58507 5.25433
LeftFoot  -8.16122 -0.0081882 2.06383
LeftToes  3.91355e-005 3.11907e-005 -4.10385e-006
197
root  -4.08164 66.8047 34.6759 -179.714 6.28308 -179.177
RightUpLeg  -3.35365 3.57466 4.38032
RightLeg  13.5197 -1.65212 -1.5965
RightFoot  -8.38539 0.0167216 -2.84248
RightToes  2.84633e-005 7.89722e-005 -0.000426369
Spine  1.97127 1.40084 1.84745
Spine1  4.01645 2.69941 2.69778
HEad  23.0688 -6.2013 -5.65005
LeftShoulder1  -3.88251e-019 0 -3.92111e-022
LeftArm  -37.8451 9.54986 -83.8442
LeftForeArm  34.7715 1.85489 2.18095
LeftHand  -0.612717 -3.75177 8.04062
RightShoulder  7.45443e-017 -2.42657e-020 1.96277e-018
RightArm  -27.521 -13.5462 72.3252
RightForeArm  31.174 4.78698 6.91706
RightHand  -1.26974 9.51132 -10.2375
LeftUpLeg  -17.9732 -0.996589 1.37625
LeftLeg  21.9825 6.57093 3.24678
LeftFoot  -5.72113 -0.0995768 2.73428
LeftToes  3.91355e-005 3.11907e-005 -4.10385e-006
